M48
; DRILL file {KiCad 9.0.6} date 2025-11-03T21:57:09+0900
; FORMAT={-:-/ absolute / metric / decimal}
; #@! TF.CreationDate,2025-11-03T21:57:09+09:00
; #@! TF.GenerationSoftware,Kicad,Pcbnew,9.0.6
; #@! TF.FileFunction,Plated,1,2,PTH
FMAT,2
METRIC
; #@! TA.AperFunction,Plated,PTH,ViaDrill
T1C0.300
; #@! TA.AperFunction,Plated,PTH,ComponentDrill
T2C0.500
; #@! TA.AperFunction,Plated,PTH,ComponentDrill
T3C0.813
; #@! TA.AperFunction,Plated,PTH,ComponentDrill
T4C1.000
; #@! TA.AperFunction,Plated,PTH,ComponentDrill
T5C2.000
%
G90
G05
T1
X92.0Y-60.5
X94.639Y-95.18
X94.709Y-114.37
X94.719Y-76.06
X112.0Y-70.5
X112.5Y-72.0
X113.009Y-70.68
X113.726Y-91.0
X113.726Y-110.5
X130.079Y-85.42
X131.0Y-67.5
X132.0Y-105.5
X132.776Y-86.5
X151.839Y-69.13
X151.859Y-88.78
X151.869Y-106.31
X162.279Y-98.84
X170.869Y-104.04
X170.879Y-66.0
X170.949Y-85.16
X172.5Y-90.5
X173.46Y-115.85
X176.27Y-113.25
X177.859Y-72.45
X178.458Y-85.779
X179.139Y-81.0
X179.349Y-87.6
X182.82Y-88.57
X184.649Y-110.06
X185.42Y-60.96
X185.42Y-73.152
X186.032Y-71.85
X186.163Y-73.66
X186.763Y-73.05
X187.363Y-71.837
X189.709Y-76.982
X190.99Y-79.71
X197.2Y-96.18
X200.001Y-84.075
T3
X183.699Y-58.304
X183.699Y-60.844
X183.699Y-63.384
X183.699Y-65.924
X183.699Y-68.464
X183.699Y-71.004
X183.699Y-73.544
X198.939Y-58.304
X198.939Y-60.844
X198.939Y-63.384
X198.939Y-65.924
X198.939Y-68.464
X198.939Y-71.004
X198.939Y-73.544
T4
X186.874Y-63.702
X186.874Y-65.607
X195.155Y-75.236
X197.034Y-75.236
T2
G00X198.8Y-108.05
M15
G01X198.8Y-107.75
M16
G05
G00X198.8Y-110.55
M15
G01X198.8Y-110.25
M16
G05
G00X198.8Y-113.05
M15
G01X198.8Y-112.75
M16
G05
T3
G00X188.469Y-78.415
M15
G01X188.461Y-78.415
M16
G05
G00X188.469Y-93.515
M15
G01X188.461Y-93.515
M16
G05
G00X190.969Y-78.415
M15
G01X190.961Y-78.415
M16
G05
G00X193.469Y-78.415
M15
G01X193.461Y-78.415
M16
G05
G00X193.469Y-93.515
M15
G01X193.461Y-93.515
M16
G05
T5
G00X183.465Y-86.065
M15
G01X183.465Y-85.765
M16
G05
G00X198.465Y-86.065
M15
G01X198.465Y-85.765
M16
G05
M30
