%TF.GenerationSoftware,KiCad,Pcbnew,9.0.6*%
%TF.CreationDate,2025-11-03T21:56:57+09:00*%
%TF.ProjectId,roba_L,726f6261-5f4c-42e6-9b69-6361645f7063,rev?*%
%TF.SameCoordinates,Original*%
%TF.FileFunction,Profile,NP*%
%FSLAX46Y46*%
G04 Gerber Fmt 4.6, Leading zero omitted, Abs format (unit mm)*
G04 Created by KiCad (PCBNEW 9.0.6) date 2025-11-03 21:56:57*
%MOMM*%
%LPD*%
G01*
G04 APERTURE LIST*
%TA.AperFunction,Profile*%
%ADD10C,0.050000*%
%TD*%
%TA.AperFunction,Profile*%
%ADD11C,0.120000*%
%TD*%
G04 APERTURE END LIST*
D10*
X201395507Y-57370002D02*
X201395507Y-121997924D01*
X145500000Y-109519998D02*
X145500000Y-123500000D01*
X141849340Y-48370000D02*
G75*
G02*
X142849300Y-49370000I-40J-1000000D01*
G01*
X143849340Y-50870000D02*
X160899340Y-50870000D01*
X125799342Y-48370000D02*
X141849340Y-48370000D01*
X122799342Y-128269997D02*
X105749342Y-128269997D01*
X146849340Y-109519998D02*
G75*
G02*
X147849302Y-110519998I-40J-1000002D01*
G01*
X205084349Y-142200173D02*
G75*
G02*
X203815139Y-142802274I-939649J341973D01*
G01*
X147849340Y-132269997D02*
X147849340Y-110519998D01*
X201395509Y-56370004D02*
X201395507Y-57370002D01*
X87699343Y-60070000D02*
X104749342Y-60070000D01*
X162899340Y-53370000D02*
G75*
G02*
X161899300Y-52370000I-40J1000000D01*
G01*
X160899340Y-50870000D02*
G75*
G02*
X161899300Y-51870000I-40J-1000000D01*
G01*
X104749342Y-129269997D02*
G75*
G02*
X105749342Y-128270042I999958J-3D01*
G01*
X104749342Y-134269997D02*
G75*
G02*
X103749342Y-135270042I-1000042J-3D01*
G01*
X123799342Y-127269997D02*
G75*
G02*
X122799342Y-128270042I-1000042J-3D01*
G01*
X165737786Y-133269997D02*
X148849340Y-133269997D01*
X87699343Y-135269997D02*
G75*
G02*
X86699303Y-134269997I-43J999997D01*
G01*
X165737786Y-133269997D02*
G75*
G02*
X166058802Y-133295927I14J-1999903D01*
G01*
X142849340Y-49370000D02*
X142849340Y-49870000D01*
X181949340Y-55370000D02*
G75*
G02*
X180949300Y-54370000I-40J1000000D01*
G01*
X86699343Y-134269997D02*
X86699343Y-61070000D01*
X146849340Y-109519998D02*
X145500000Y-109519998D01*
X124799342Y-52070000D02*
X124799342Y-49370000D01*
X161899340Y-51870000D02*
X161899340Y-52370000D01*
X103749342Y-135269997D02*
X87699343Y-135269997D01*
X185581571Y-136470653D02*
X166058802Y-133295928D01*
X210578499Y-127104515D02*
X205084349Y-142200173D01*
X143849340Y-50870000D02*
G75*
G02*
X142849300Y-49870000I-40J1000000D01*
G01*
X123799342Y-124569998D02*
G75*
G02*
X124799342Y-123570042I999958J-2D01*
G01*
X209980810Y-125822810D02*
G75*
G02*
X210578489Y-127104512I-342010J-939690D01*
G01*
X162899340Y-53370000D02*
X179949340Y-53370000D01*
X105749342Y-59070000D02*
X105749342Y-54070000D01*
X145500000Y-123500000D02*
X124799342Y-123569999D01*
X106749342Y-53070000D02*
X123799342Y-53070000D01*
X200395509Y-55370002D02*
G75*
G02*
X201395498Y-56370004I-9J-999998D01*
G01*
X124799342Y-49370000D02*
G75*
G02*
X125799342Y-48370042I999958J0D01*
G01*
X104749342Y-129269997D02*
X104749342Y-134269997D01*
X105749342Y-54070000D02*
G75*
G02*
X106749342Y-53070042I999958J0D01*
G01*
X86699343Y-61070000D02*
G75*
G02*
X87699343Y-60070043I1000057J-100D01*
G01*
X181949340Y-55370000D02*
X200395509Y-55370002D01*
X148849340Y-133269997D02*
G75*
G02*
X147849303Y-132269997I-40J999997D01*
G01*
X105749342Y-59070000D02*
G75*
G02*
X104749342Y-60070042I-1000042J0D01*
G01*
X202053499Y-122937621D02*
G75*
G02*
X201395480Y-121997924I342001J939721D01*
G01*
X203815126Y-142802311D02*
X185919606Y-136556428D01*
X202053499Y-122937621D02*
X209980810Y-125822810D01*
X179949340Y-53370000D02*
G75*
G02*
X180949300Y-54370000I-40J-1000000D01*
G01*
X123799342Y-124569998D02*
X123799342Y-127269997D01*
X124799342Y-52070000D02*
G75*
G02*
X123799342Y-53070042I-1000042J0D01*
G01*
X185581571Y-136470653D02*
G75*
G02*
X185919608Y-136556422I-320971J-1974047D01*
G01*
D11*
%TO.C,U1*%
X186611587Y-65173447D02*
X186611587Y-64132047D01*
X187297387Y-63446247D02*
X188897587Y-63446247D01*
X188897587Y-65859247D02*
X187297387Y-65859247D01*
X189278587Y-63827247D02*
X189278587Y-65478247D01*
X194891587Y-74815953D02*
X194891587Y-73215753D01*
X195272587Y-72834753D02*
X196923587Y-72834753D01*
X196618787Y-75501753D02*
X195577387Y-75501753D01*
X197304587Y-73215753D02*
X197304587Y-74815953D01*
X186611587Y-65173447D02*
G75*
G02*
X187297387Y-65859247I247753J-438047D01*
G01*
X187297387Y-63446247D02*
G75*
G02*
X186611587Y-64132047I-438047J-247753D01*
G01*
X188897587Y-63446247D02*
G75*
G02*
X189278587Y-63827247I8J-380992D01*
G01*
X189278587Y-65478247D02*
G75*
G02*
X188897587Y-65859247I-380996J-4D01*
G01*
X194891587Y-73215753D02*
G75*
G02*
X195272587Y-72834757I380993J3D01*
G01*
X194891587Y-74815953D02*
G75*
G02*
X195577387Y-75501753I247753J-438047D01*
G01*
X196618787Y-75501753D02*
G75*
G02*
X197304591Y-74815946I438053J247753D01*
G01*
X196923587Y-72834753D02*
G75*
G02*
X197304587Y-73215753I3J-380997D01*
G01*
%TD*%
M02*
