M48
; DRILL file {KiCad 9.0.6} date 2025-11-03T21:57:09+0900
; FORMAT={-:-/ absolute / metric / decimal}
; #@! TF.CreationDate,2025-11-03T21:57:09+09:00
; #@! TF.GenerationSoftware,Kicad,Pcbnew,9.0.6
; #@! TF.FileFunction,NonPlated,1,2,NPTH
FMAT,2
METRIC
; #@! TA.AperFunction,NonPlated,NPTH,ComponentDrill
T1C1.000
; #@! TA.AperFunction,NonPlated,NPTH,ComponentDrill
T2C1.700
; #@! TA.AperFunction,NonPlated,NPTH,ComponentDrill
T3C1.900
; #@! TA.AperFunction,NonPlated,NPTH,ComponentDrill
T4C3.000
; #@! TA.AperFunction,NonPlated,NPTH,ComponentDrill
T5C4.100
; #@! TA.AperFunction,NonPlated,NPTH,ComponentDrill
T6C4.300
; #@! TA.AperFunction,NonPlated,NPTH,ComponentDrill
T7C4.800
; #@! TA.AperFunction,NonPlated,NPTH,ComponentDrill
T8C5.000
%
G90
G05
T1
X90.7Y-74.555
X90.7Y-93.605
X90.7Y-112.655
X90.7Y-131.705
X109.75Y-67.555
X109.75Y-86.605
X109.75Y-105.655
X109.75Y-124.706
X128.776Y-119.985
X128.8Y-62.855
X128.8Y-81.905
X128.8Y-100.955
X147.85Y-65.355
X147.85Y-84.405
X147.85Y-103.455
X166.9Y-67.855
X166.9Y-86.905
X166.9Y-105.956
X185.95Y-110.48
T2
X152.367Y-124.255
X161.367Y-124.255
X173.76Y-125.291
X182.649Y-126.699
X195.053Y-130.012
X203.51Y-133.09
T3
X151.367Y-124.255
X151.787Y-124.255
X161.947Y-124.255
X162.367Y-124.255
X172.772Y-125.135
X173.187Y-125.201
X183.222Y-126.79
X183.637Y-126.856
X185.88Y-85.91
X194.113Y-129.67
X194.508Y-129.813
X196.04Y-85.91
X204.055Y-133.288
X204.45Y-133.432
T4
X95.7Y-63.105
X95.7Y-82.155
X95.7Y-101.205
X95.7Y-120.255
X100.7Y-65.305
X100.7Y-84.355
X100.7Y-103.405
X100.7Y-122.455
X114.75Y-56.105
X114.75Y-75.156
X114.75Y-94.206
X114.75Y-113.255
X119.75Y-58.305
X119.75Y-77.355
X119.75Y-96.405
X119.75Y-115.456
X133.776Y-108.535
X133.8Y-51.405
X133.8Y-70.455
X133.8Y-89.505
X138.776Y-110.735
X138.8Y-53.605
X138.8Y-72.655
X138.8Y-91.705
X152.85Y-53.905
X152.85Y-72.955
X152.85Y-92.005
X154.327Y-129.335
X156.867Y-118.355
X156.867Y-118.355
X157.85Y-56.105
X157.85Y-75.155
X157.85Y-94.205
X160.677Y-126.795
X161.867Y-120.555
X171.9Y-56.405
X171.9Y-75.456
X171.9Y-94.505
X174.901Y-130.615
X176.9Y-58.605
X176.9Y-77.656
X176.9Y-96.706
X179.127Y-120.168
X179.127Y-120.168
X181.57Y-129.1
X183.722Y-123.123
X187.15Y-83.37
X190.95Y-99.03
X193.5Y-80.83
X195.157Y-135.456
X195.95Y-101.23
X201.299Y-126.007
X201.299Y-126.007
X201.993Y-135.241
X205.245Y-129.784
T5
X156.867Y-124.255
X178.204Y-125.995
X190.96Y-85.91
X199.281Y-131.551
T6
X106.359Y-71.61
X106.369Y-109.71
X161.319Y-69.41
X163.489Y-90.0
X167.549Y-126.45
X188.309Y-131.03
X196.85Y-118.425
T7
X95.7Y-69.005
X95.7Y-88.055
X95.7Y-107.105
X95.7Y-126.155
X114.75Y-62.005
X114.75Y-81.055
X114.75Y-100.105
X114.75Y-119.155
X133.776Y-114.435
X133.8Y-57.305
X133.8Y-76.355
X133.8Y-95.405
X152.85Y-59.805
X152.85Y-78.855
X152.85Y-97.905
X171.9Y-62.305
X171.9Y-81.355
X171.9Y-100.405
X190.95Y-104.93
T8
X156.867Y-124.255
X178.204Y-125.995
X190.96Y-85.91
X199.281Y-131.551
M30
